<?xml version="1.0" encoding="utf-8"?>
<!-- Generator: Adobe Illustrator 14.0.0, SVG Export Plug-In . SVG Version: 6.00 Build 43363)  -->
<!DOCTYPE svg PUBLIC "-//W3C//DTD SVG 1.1//EN" "http://www.w3.org/Graphics/SVG/1.1/DTD/svg11.dtd">
<svg version="1.1" id="main" xmlns="http://www.w3.org/2000/svg" xmlns:xlink="http://www.w3.org/1999/xlink" x="0px" y="0px"
	 width="560px" height="180px" viewBox="0 0 560 180" enable-background="new 0 0 560 180" xml:space="preserve">
<g>
	<path fill="#939598" d="M377.433,102.577v1.851l-3.876-0.006v-2.211c0-1.844-0.929-3.324-3.688-3.324
		c-2.773,0-3.702,1.48-3.702,3.324v16.243c0,1.844,0.929,3.321,3.702,3.321c2.759,0,3.688-1.477,3.688-3.321v-2.211h3.876v1.845
		c0,4.074-1.662,7.382-7.563,7.382c-5.916,0-7.76-3.308-7.76-7.382v-15.509c0-4.074,1.844-7.38,7.76-7.38
		C375.771,95.197,377.433,98.503,377.433,102.577 M395.887,95.562h12.558v3.698h-8.499v25.836h-4.059V95.562z M484.313,95.562
		v29.541h-4.064V99.265h-2.585v-0.01c-2.767,0-4.058,1.48-4.058,3.322v4.435c0,1.848,1.291,3.328,4.058,3.328h1.48l-5.532,14.763
		h-4.436l4.417-11.783c-2.88-1.183-4.054-3.726-4.054-6.674v-3.691c0-4.081,2.222-7.392,8.124-7.392H484.313z M461.794,95.562h4.058
		v29.534h-4.058v-13.1h-8.129v13.1H449.6V95.562h4.065v12.736h8.129V95.562z M421.361,118.453c0,1.847-1.287,3.328-4.06,3.328
		s-4.063-1.48-4.063-3.328V102.21c0-1.844,1.291-3.324,4.063-3.324s4.06,1.48,4.06,3.324V118.453z M417.301,95.197
		c-5.908,0-8.122,3.306-8.122,7.38v15.509c0,4.074,2.214,7.385,8.122,7.385c5.903,0,8.124-3.311,8.124-7.385v-15.509
		C425.425,98.503,423.205,95.197,417.301,95.197 M380.381,95.562h12.552v3.698h-8.492v9.038h7.018v3.698h-7.018v9.415h8.492v3.685
		h-12.552V95.562z M440.743,121.401h-7.998c2.103-5.536,2.127-15.133,2.127-22.146h5.871V121.401z M444.807,121.401v-25.84H431.19
		c0,9.973-0.038,21.041-2.729,25.84h-2.296v9.108h3.694l0.408-5.417h13.003l0.427,5.417h3.694v-9.108H444.807z M475.663,55.369
		h8.644v32.157h-5.627V60.601h-3.017c-2.61,0-3.412,1.435-3.412,3.215v4.416c0,1.753,0.784,3.182,3.318,3.215h2.309v0.003h0.006
		l-0.031,0.064l-5.608,16.006h-6.027l4.697-11.731c-2.998-1.336-4.297-4.03-4.297-7.156v-5.222
		C466.617,58.968,469.227,55.369,475.663,55.369 M371.148,72.656h-3.011V60.601l3.011-0.006c2.616,0.006,3.419,1.441,3.419,3.221
		v5.626C374.567,71.211,373.764,72.656,371.148,72.656 M371.148,55.369h-8.638v32.157h5.627v-9.645h3.011
		c6.436,0,9.046-3.597,9.046-8.042v-6.429C380.194,58.968,377.583,55.369,371.148,55.369 M458.977,55.369h4.423v32.157h-5.626
		V73.058l0.4-6.435l-9.641,20.903h-4.422V55.369h5.626v14.474l-0.408,6.423L458.977,55.369z M391.855,82.706
		c-2.61,0-3.613-1.445-3.613-3.215v-16.08c0-1.78,1.003-3.214,3.613-3.214c2.615,0,3.619,1.435,3.619,3.214v16.08
		C395.474,81.261,394.47,82.706,391.855,82.706 M391.855,54.968c-6.43,0-9.24,3.604-9.24,8.035v16.886
		c0,4.442,2.811,8.041,9.24,8.041c6.436,0,9.244-3.599,9.244-8.041V63.003C401.099,58.567,398.291,54.968,391.855,54.968
		 M441.301,63.006v2.81h-5.231v-2.405c0-1.78-0.603-3.214-3.211-3.214c-2.616,0-3.218,1.435-3.218,3.214v16.08
		c0,1.77,0.602,3.215,3.218,3.215c2.608,0,3.211-1.445,3.211-3.215v-2.421l5.231,0.003v2.817c-0.007,4.442-2.015,8.041-8.442,8.041
		c-6.437,0-8.845-3.599-8.851-8.041V63.003c0-4.436,2.414-8.039,8.851-8.039C439.287,54.964,441.301,58.572,441.301,63.006
		 M421.606,63.006v2.81h-5.231v-2.405c0-1.78-0.604-3.214-3.219-3.214s-3.211,1.435-3.211,3.214v16.08
		c0,1.77,0.596,3.215,3.211,3.215s3.219-1.445,3.219-3.215v-2.421l5.231,0.003v2.817c0,4.442-2.014,8.041-8.45,8.041
		c-6.43,0-8.844-3.599-8.844-8.041V63.003c0-4.436,2.414-8.039,8.844-8.039C419.592,54.964,421.606,58.572,421.606,63.006"/>
	<rect x="339.546" y="40.306" fill="#939598" width="3.213" height="104.866"/>
	<path fill="#003767" d="M103.003,55.746c-0.003,0.006-0.009,0.014-0.018,0.026c-0.843,1.266-1.37,2.649-1.489,3.998
		c-0.116,1.353,0.165,2.665,0.775,3.82c1.204,2.341,3.66,4.122,6.383,5.253c2.182,0.892,4.545,1.407,6.947,1.615
		C112.557,64.651,108.235,59.619,103.003,55.746 M108.776,109.536c-11.66-1.542-23.146-4.93-33.487-10.719
		c-5.158-2.895-10.022-6.411-14.227-10.679c-4.188-4.264-7.731-9.335-9.818-15.075c-1.827-4.958-2.421-10.374-1.705-15.577
		c-9.361,7.915-15.316,19.739-15.316,32.958c0,23.828,19.313,43.142,43.142,43.142c16.706,0,31.185-9.503,38.35-23.396
		C113.401,110.041,111.079,109.831,108.776,109.536 M78.052,77.829c2.948,2.745,6.393,5.013,10.067,6.849
		c7.361,3.656,15.571,5.635,23.818,6.282c2.846,0.217,5.708,0.266,8.552,0.172c0.003-0.23,0.016-0.457,0.016-0.687
		c0-0.245-0.013-0.484-0.016-0.729c-2.181-0.096-4.352-0.294-6.503-0.61c-6.472-0.99-12.834-2.984-18.556-6.328
		c-2.85-1.676-5.544-3.696-7.879-6.147c-2.316-2.45-4.287-5.37-5.418-8.67c-1.156-3.292-1.366-6.931-0.566-10.281
		c0.791-3.362,2.521-6.359,4.676-8.799c0.165-0.193,0.358-0.357,0.524-0.539c-3.028-0.675-6.169-1.042-9.403-1.042
		c-1.256,0-2.49,0.067-3.71,0.171c-1.775,2.838-3.083,5.921-3.648,9.11c-0.732,3.935-0.293,7.965,1.187,11.603
		C72.659,71.833,75.101,75.086,78.052,77.829 M111.008,99.274c-9.095-1.301-18.048-4.062-26.085-8.717
		c-4.006-2.332-7.777-5.158-11.015-8.585c-3.23-3.417-5.929-7.49-7.438-12.078c-1.526-4.567-1.731-9.6-0.557-14.198
		c0.671-2.711,1.764-5.246,3.138-7.583c-5.266,1.026-10.187,3.013-14.575,5.765c-0.16,0.662-0.298,1.333-0.408,2.004
		c-0.864,5.194-0.188,10.554,1.86,15.355c2.023,4.82,5.305,9.092,9.214,12.696c3.918,3.613,8.459,6.571,13.286,8.973
		c9.674,4.808,20.43,7.417,31.229,8.308c3.129,0.248,6.276,0.335,9.408,0.301c0.129-0.483,0.243-0.982,0.356-1.477
		C116.604,99.911,113.796,99.664,111.008,99.274 M85.683,58.476c0.362-2.636,1.505-5.219,3.166-7.496
		c0.438-0.595,0.906-1.168,1.4-1.725c3.54,1.109,6.889,2.669,9.972,4.603c-1.266,1.4-2.312,3.132-2.833,5.126
		c-0.545,2.062-0.475,4.349,0.196,6.43c0.665,2.084,1.842,3.923,3.227,5.462c1.397,1.546,3,2.818,4.704,3.883
		c3.415,2.116,7.198,3.427,11.082,4.13c0.803,0.145,1.618,0.245,2.424,0.334c0.145,0.53,0.279,1.073,0.398,1.612
		c-1.516,0.052-3.038,0.027-4.548-0.058c-5.623-0.327-11.24-1.551-16.292-3.912c-5.013-2.344-9.588-5.929-11.771-10.72
		C85.727,63.762,85.313,61.108,85.683,58.476"/>
	<path fill="#003767" d="M149.058,68.51h-4.447v-7.582h4.447c2.727,0,3.861,0.908,3.861,3.722
		C152.919,67.193,151.965,68.51,149.058,68.51 M149.058,54.116h-12.715v31.782h8.268V75.323h4.949
		c7.309,0,11.442-4.224,11.442-10.99C161.002,57.295,156.869,54.116,149.058,54.116"/>
	<polygon fill="#003767" points="172.81,72.326 172.81,54.116 164.636,54.116 164.636,85.901 172.81,85.901 182.394,67.376 
		182.394,85.901 190.564,85.901 190.564,54.116 182.349,54.116 	"/>
	<path fill="#003767" d="M205.056,73.322l3.086-10.53L211,73.322H205.056z M213.047,54.116h-9.625l-10.357,31.782h8.265l1.681-5.765
		h9.808l1.586,5.765h8.536L213.047,54.116z"/>
	<polygon fill="#56A0D3" points="153.99,108.74 142.085,108.74 142.085,96.577 136.394,96.577 136.394,126.774 142.085,126.774 
		142.085,113.83 153.99,113.83 153.99,126.774 159.684,126.774 159.684,96.577 153.99,96.577 	"/>
	<path fill="#56A0D3" d="M182.079,115.254c0,4.702-2.03,6.771-6.604,6.771c-4.656,0-6.641-1.938-6.641-6.771v-7.16
		c0-4.874,2.2-6.815,6.641-6.815c4.574,0,6.604,1.941,6.604,6.815V115.254z M175.476,96.188c-7.981,0-12.335,4.313-12.335,11.906
		v7.16c0,7.292,4.057,11.861,12.335,11.861c8.237,0,12.294-4.569,12.294-11.861v-7.16C187.77,100.501,183.415,96.188,175.476,96.188
		"/>
	<path fill="#56A0D3" d="M202.699,121.812h-5.824v-7.85h5.824c3.194,0,4.833,0.774,4.833,3.751
		C207.532,120.946,206.018,121.812,202.699,121.812 M196.875,101.536h5.092c3.365,0,4.916,0.734,4.916,3.582
		c0,2.675-0.989,3.924-4.529,3.924h-5.479V101.536z M207.66,111.287v-0.132c3.365-0.777,4.83-3.619,4.83-6.599
		c0-5.087-3.322-7.979-9.92-7.979h-11.344v30.197h11.691c7.199,0,10.222-3.369,10.222-9.146
		C213.139,113.921,210.936,111.587,207.66,111.287"/>
	<path fill="#56A0D3" d="M235.313,115.254c0,4.702-2.031,6.771-6.601,6.771c-4.657,0-6.641-1.938-6.641-6.771v-7.16
		c0-4.874,2.195-6.815,6.641-6.815c4.57,0,6.601,1.941,6.601,6.815V115.254z M228.712,96.188c-7.983,0-12.338,4.313-12.338,11.906
		v7.16c0,7.292,4.059,11.861,12.338,11.861c8.238,0,12.291-4.569,12.291-11.861v-7.16
		C241.003,100.501,236.649,96.188,228.712,96.188"/>
	<path fill="#56A0D3" d="M256.323,101.279c3.97,0,6.039,1.552,6.258,5.861h5.689c-0.257-7.113-4.221-10.952-11.948-10.952
		c-7.982,0-12.076,4.184-12.076,11.733v7.502c0,7.376,3.962,11.736,12.032,11.736c7.771,0,11.691-3.794,11.992-10.613h-5.689
		c-0.307,4.143-2.288,5.522-6.303,5.522c-4.228,0-6.341-1.853-6.341-6.646v-7.502C249.938,103.044,252.139,101.279,256.323,101.279"
		/>
	<polygon fill="#56A0D3" points="268.704,101.667 278.025,101.667 278.025,126.771 283.714,126.771 283.714,101.667 
		293.123,101.667 293.123,96.577 268.704,96.577 	"/>
	<polygon fill="#56A0D3" points="313.528,96.577 301.622,117.886 301.622,96.577 295.927,96.577 295.927,126.771 301.622,126.771 
		313.571,105.503 313.571,126.771 319.223,126.771 319.223,96.577 	"/>
</g>
</svg>
